# xmcd
# Track frame offsets:
# 150
# 6629
# 13461
# 18882
# 24972
# 31394
# 34975
# 40995
# 47287
# 53219
# 58252
# 63414
# 69372
# 74167
# 77758
# 83092
# 88345
# 95081
# 102460
# 108547
# 112739
# 118786
# 124969
# 131054
# 135552
# 141496
# 145509
# 151734
# 156960
# 162164
# 168054
# 172859
# 179596
# 185778
# 191686
# 198272
# 204985
# 210331
# 216554
# 221874
# 226310
# 230504
# 236670
# 243935
# 249496
# 256878
# 261237
# 266503
# 273344
# 279393
# 284187
# 291013
#
# Disc length: 4053 seconds
# Revision: 0
# Processed by: cddbd v1.4PL0 Copyright (c) Steve Scherf et al.
# Submitted via: VisiTrax 2.9.5.181 - For more info visit www.synapsa.com
#
DISCID=140fd334
DTITLE=DJ Vinom - Slow Jam Mix
DYEAR=2003
DGENRE=Slow
TTITLE0=Babyface - When Can I sse You Agan
TTITLE1=98 Degrees - I Do
TTITLE2=NSync - This is my promise to you
TTITLE3=Monica - Right Here Waiting
TTITLE4=TLC - I miss you so much
TTITLE5=Britney Spears - HEart
TTITLE6=Back Street Boys - More Than That
TTITLE7=PM Dawn - I'd DIe without you
TTITLE8=Backstreet Boys - I Need You Tonight
TTITLE9=Savage Garden - Truly Madly Deeply
TTITLE10=Savage Garden - I Knew I Loved You
TTITLE11=N'Sync - God Must Have Spent
TTITLE12=Backstreet Boys - Shome me the Meaning
TTITLE13=Lid Lobe - You Say
TTITLE14=Tyrese - Lately
TTITLE15=Az Yet - Last Night
TTITLE16=Voices of Theory - Say It
TTITLE17=Britney Spears - Bottom of my broken Heart
TTITLE18=Babyface - I care about YOu
TTITLE19=Soap - Deep in my Heart
TTITLE20=Eric Benet - Spemd my life with you
TTITLE21=babface - Everytime I Close my eyes
TTITLE22=Selena - I miss you my baby
TTITLE23=Spice Girls - Two Become one
TTITLE24=Mint Conditions - Pretty Brown Eyes
TTITLE25=Shai - Baby I;m Yours
TTITLE26=Britney Spears - Where are you Now
TTITLE27=S Club 7 - I never had a Dream come True
TTITLE28=LFO - I Dont wanna Kiss you good night LFo
TTITLE29=KC and JoJO - All My Life
TTITLE30=98 Degrees - My Everything
TTITLE31=Dru Hill - Angel
TTITLE32=O Town - All or Nothing
TTITLE33=Christina Aguilera - I turn to you
TTITLE34=Babyface - Reason for Breathing
TTITLE35=Sara McLachlan - I will Remember you
TTITLE36=Atlantic Star - I'll remember YOu
TTITLE37=Babyface - Slow Jams
TTITLE38=Jon B - Someone to Love
TTITLE39=Joe - I wanna Know
TTITLE40=Pretenters - I'll stand by you
TTITLE41=New Edition - I'm still in love with you
TTITLE42=Babyface - a Girl like you
TTITLE43=Backstreet boys - Spanish Eyes
TTITLE44=KC and JOJ - tell me its real
TTITLE45=Brandy - Everything I do, I'll do for you
TTITLE46=Brian Mcknight - Back at one
TTITLE47=Dru Hill - You are Everything
TTITLE48=Destinys Child - Brown Eyes
TTITLE49=Usher - U got it Bad
TTITLE50=Blague - When the last tear drop falls
TTITLE51=N'Sync - Gone
EXTD=
EXTT0=
EXTT1=
EXTT2=
EXTT3=
EXTT4=
EXTT5=
EXTT6=
EXTT7=
EXTT8=
EXTT9=
EXTT10=
EXTT11=
EXTT12=
EXTT13=
EXTT14=
EXTT15=
EXTT16=
EXTT17=
EXTT18=
EXTT19=
EXTT20=
EXTT21=
EXTT22=
EXTT23=
EXTT24=
EXTT25=
EXTT26=
EXTT27=
EXTT28=
EXTT29=
EXTT30=
EXTT31=
EXTT32=
EXTT33=
EXTT34=
EXTT35=
EXTT36=
EXTT37=
EXTT38=
EXTT39=
EXTT40=
EXTT41=
EXTT42=
EXTT43=
EXTT44=
EXTT45=
EXTT46=
EXTT47=
EXTT48=
EXTT49=
EXTT50=
EXTT51=
PLAYORDER=
